<svg viewBox="0 0 800 800" xmlns="http://www.w3.org/2000/svg"><path d="M796.7908909041001,352.454828717981 L796.8129044034347,340.7141838950972 M817.0737982311939,340.72493689302695 L817.0969354884588,328.9849445630815 M796.7908909041001,352.454828717981 L817.0737982311939,340.72493689302695 M796.8129044034347,340.7141838950972 L817.0969354884588,328.9849445630815 M819.3661836538189,295.34925735833457 L819.3894381999936,283.61179048115906 M817.0737982311939,340.72493689302695 L824.8020203976027,335.16880306792467 M824.8020203976027,335.16880306792467 L830.2886361196718,328.78591567350435 M830.2886361196718,328.78591567350435 L833.2803590842802,321.8715913548727 M833.2803590842802,321.8715913548727 L833.6393382490543,314.7456056890625 M833.6393382490543,314.7456056890625 L831.349493882986,307.7373944470689 M831.349493882986,307.7373944470689 L826.5171778215906,301.1708382207893 M826.5171778215906,301.1708382207893 L819.3661836538189,295.34925735833457 M817.0969354884588,328.9849445630815 L824.8255855223962,323.42911985679666 M824.8255855223962,323.42911985679666 L830.3125044285357,317.04658761817984 M830.3125044285357,317.04658761817984 L833.3043919152816,310.13264807382717 M833.3043919152816,310.13264807382717 L833.663389385564,303.0070590136022 M833.663389385564,303.0070590136022 L831.3734163199454,295.9992378743821 M831.3734163199454,295.9992378743821 L826.540830558279,289.4330472135932 M826.540830558279,289.4330472135932 L819.3894381999936,283.61179048115906 M816.8887926245144,293.83140853393996 L816.9119093410055,282.09402617237515 M819.3661836538189,295.34925735833457 L816.8887926245144,293.83140853393996 M819.3894381999936,283.61179048115906 L816.9119093410055,282.09402617237515 M593.1564897248006,165.08864577091867 L593.1671762378182,153.35844077349972 M816.8887926245144,293.83140853393996 L593.1564897248006,165.08864577091867 M816.9119093410055,282.09402617237515 L593.1671762378182,153.35844077349972 M587.7447601763174,162.3428768348358 L587.7551464338516,150.61282510286222 M593.1564897248006,165.08864577091867 L587.7447601763174,162.3428768348358 M593.1671762378182,153.35844077349972 L587.7551464338516,150.61282510286222 M511.98398663510073,165.08864577091867 L511.99017356368995,153.35844077349972 M587.7447601763174,162.3428768348358 L575.9045942979543,158.26356050818777 M575.9045942979543,158.26356050818777 L562.7203844482082,155.92798930427173 M562.7203844482082,155.92798930427173 L548.9526661498666,155.47076511042306 M548.9526661498666,155.47076511042306 L535.395541320988,156.9182503438946 M535.395541320988,156.9182503438946 L522.831029582881,160.1870045389525 M522.831029582881,160.1870045389525 L511.98398663510073,165.08864577091867 M587.7551464338516,150.61282510286222 L575.9143238676486,146.53373649327025 M575.9143238676486,146.53373649327025 L562.7293830338355,144.19829567432166 M562.7293830338355,144.19829567432166 L548.9609015887945,143.74109700601855 M548.9609015887945,143.74109700601855 L535.4030254276215,145.1885014311988 M535.4030254276215,145.1885014311988 L522.8378174732297,148.45707315067403 M522.8378174732297,148.45707315067403 L511.99017356368995,153.35844077349972 M-16.83982233690307,469.89719997777684 L-16.863016222672684,458.15003022020335 M511.98398663510073,165.08864577091867 L-16.83982233690307,469.89719997777684 M511.99017356368995,153.35844077349972 L-16.863016222672684,458.15003022020335 M-19.495986640325555,515.4230737549585 L-19.51933823833309,503.6733785432486 M-16.83982233690307,469.89719997777684 L-24.622236030084764,475.4675184792322 M-24.622236030084764,475.4675184792322 L-30.168213755171564,481.8681491146677 M-30.168213755171564,481.8681491146677 L-33.221089420649264,488.80344145317247 M-33.221089420649264,488.80344145317247 L-33.6392556302028,495.95293937053196 M-33.6392556302028,495.95293937053196 L-31.40284322038235,502.98615844602466 M-31.40284322038235,502.98615844602466 L-26.614749104951443,509.5778427499435 M-26.614749104951443,509.5778427499435 L-19.495986640325555,515.4230737549585 M-16.863016222672684,458.15003022020335 L-24.64586380517153,463.72003960271127 M-24.64586380517153,463.72003960271127 L-30.19215131066568,470.12031508218087 M-30.19215131066568,470.12031508218087 L-33.2451982936027,477.05522264621516 M-33.2451982936027,477.05522264621516 L-33.66338938556396,484.2043239577751 M-33.66338938556396,484.2043239577751 L-31.426854213586978,491.2371529302674 M-31.426854213586978,491.2371529302674 L-26.63849531185923,497.8284716684677 M-26.63849531185923,497.8284716684677 L-19.51933823833309,503.6733785432486 M-17.02544565806363,516.9473009514193 L-17.04866018757116,505.19752122404134 M-19.495986640325555,515.4230737549585 L-17.02544565806363,516.9473009514193 M-19.51933823833309,503.6733785432486 L-17.04866018757116,505.19752122404134 M206.70685365545725,646.5512172407925 L206.6960693286262,634.7942601418968 M-17.02544565806363,516.9473009514193 L206.70685365545725,646.5512172407925 M-17.04866018757116,505.19752122404134 L206.6960693286262,634.7942601418968 M212.13346726559095,649.3222621825541 L212.12298484816307,637.5651518180086 M206.70685365545725,646.5512172407925 L212.13346726559095,649.3222621825541 M206.6960693286262,634.7942601418968 L212.12298484816307,637.5651518180086 M288.2499868054809,646.5512172407925 L288.24374324784185,634.7942601418968 M212.13346726559095,649.3222621825541 L224.0146386475149,653.4396646236492 M224.0146386475149,653.4396646236492 L237.2535222773828,655.7973291763062 M237.2535222773828,655.7973291763062 L251.08521452117046,656.2589029939813 M251.08521452117046,656.2589029939813 L264.71046482515237,654.7976751876429 M264.71046482515237,654.7976751876429 L277.34195259842875,651.498182983366 M277.34195259842875,651.498182983366 L288.2499868054809,646.5512172407925 M212.12298484816307,637.5651518180086 L224.00481747448123,641.6823265417404 M224.00481747448123,641.6823265417404 L237.24443816381137,644.0398607092527 M237.24443816381137,644.0398607092527 L251.07690066314498,644.5014090013474 M251.07690066314498,644.5014090013474 L264.7029098695964,643.0402620034106 M264.7029098695964,643.0402620034106 L277.33510130161005,639.7409522749633 M277.33510130161005,639.7409522749633 L288.24374324784185,634.7942601418968 M308.64598511718305,634.7559233019085 L308.64087788946756,622.9996186874371 M288.2499868054809,646.5512172407925 L308.64598511718305,634.7559233019085 M288.24374324784185,634.7942601418968 L308.64087788946756,622.9996186874371 M288.2749540844613,622.9632559385275 L288.26871330722037,611.2076038094065 M308.64598511718305,634.7559233019085 L288.2749540844613,622.9632559385275 M308.64087788946756,622.9996186874371 L288.26871330722037,611.2076038094065 M285.7975346524495,621.4359725000352 L285.7911560416142,609.6804048858205 M288.2749540844613,622.9632559385275 L285.7975346524495,621.4359725000352 M288.26871330722037,611.2076038094065 L285.7911560416142,609.6804048858205 M288.3248552989969,575.8188347012701 L288.31862007698305,564.0657925218318 M285.7975346524495,621.4359725000352 L278.65475496695905,615.579021577149 M278.65475496695905,615.579021577149 L273.84282350908273,608.9741214651881 M273.84282350908273,608.9741214651881 L271.5838554585864,601.9268022486383 M271.5838554585864,601.9268022486383 L271.98178980654893,594.7629720376572 M271.98178980654893,594.7629720376572 L275.0176915346811,587.813777741366 M275.0176915346811,587.813777741366 L280.55073654243074,581.4003177002805 M280.55073654243074,581.4003177002805 L288.3248552989969,575.8188347012701 M285.7911560416142,609.6804048858205 L278.6479790760426,603.8237780903153 M278.6479790760426,603.8237780903153 L273.83578018111734,597.2192435409852 M273.83578018111734,597.2192435409852 L271.5766868606594,590.1723144242933 M271.5766868606594,590.1723144242933 L271.97464384199594,583.0088808160779 M271.97464384199594,583.0088808160779 L275.0107150011047,576.0600712914688 M275.0107150011047,576.0600712914688 L280.5440683523104,569.6469664039109 M280.5440683523104,569.6469664039109 L288.31862007698305,564.0657925218318 M695.1122362767263,340.72493689302695 L695.1286016538163,328.9849445630815 M288.3248552989969,575.8188347012701 L695.1122362767263,340.72493689302695 M288.31862007698305,564.0657925218318 L695.1286016538163,328.9849445630815 M770.9944208494982,337.9700134853069 L771.014999025984,326.2301744231109 M695.1122362767263,340.72493689302695 L705.9688188938683,335.806953617423 M705.9688188938683,335.806953617423 L718.5485702141175,332.5273018379801 M718.5485702141175,332.5273018379801 L732.1257558195852,331.0749909927087 M732.1257558195852,331.0749909927087 L745.9171999559899,331.5337394688277 M745.9171999559899,331.5337394688277 L759.1274334588006,333.8770970433959 M759.1274334588006,333.8770970433959 L770.9944208494982,337.9700134853069 M695.1286016538163,328.9849445630815 L705.9857862894236,324.067234900759 M705.9857862894236,324.067234900759 L718.5662355155763,320.78776559973033 M718.5662355155763,320.78776559973033 L732.1441746785051,319.33553556402217 M732.1441746785051,319.33553556402217 L745.9363845941953,319.7942585141926 M745.9363845941953,319.7942585141926 L759.1473519695096,322.13748570175227 M759.1473519695096,322.13748570175227 L771.014999025984,326.2301744231109 M776.4199442463713,340.72493689302695 L776.4408242102447,328.9849445630815 M770.9944208494982,337.9700134853069 L776.4199442463713,340.72493689302695 M771.014999025984,326.2301744231109 L776.4408242102447,328.9849445630815 M776.4199442463713,340.72493689302695 L796.7908909041001,352.454828717981 M776.4408242102447,328.9849445630815 L796.8129044034347,340.7141838950972" stroke="black"  stroke-width="4"  fill="red"/></svg>